PathFileType	4	(X/Y/Z)	D:\MotionData\NordSprintingStudy\BertecTesting2023-09-14\Generated_files\Trimmed_running_0600000001-Feet.trc
DataRate	CameraRate	NumFrames	NumMarkers	Units	OrigDataRate	OrigDataStartFrame	OrigNumFrames
200.00	200.00	      35	10	mm	200.00	1663	      1900
Frame#	Time	r_calc			r_toe			r_meta			r_ankle			r_mankle			l_calc			l_toe			l_meta			l_ankle			l_mankle			
		X1	Y1	Z1	X2	Y2	Z2	X3	Y3	Z3	X4	Y4	Z4	X5	Y5	Z5	X6	Y6	Z6	X7	Y7	Z7	X8	Y8	Z8	X9	Y9	Z9	X10	Y10	Z10	

1663	8.310	1133.19238	297.52277	187.96973	1339.68115	227.45135	180.88872	1288.35657	192.81444	157.73999	1184.98633	220.91548	229.79982	1218.71960	299.24463	246.30019	300.50961	367.23633	344.56351	375.80444	373.46310	143.31323	343.68774	426.15961	182.17859	365.03406	417.86526	309.37973	382.31070	338.77167	290.43564	
1664	8.315	1153.43713	293.12854	179.12584	1361.64978	232.07671	181.66130	1312.31433	197.38254	153.97778	1204.66321	223.04073	220.99301	1236.75659	300.20786	240.13826	292.01947	369.32956	366.38513	358.13699	373.90631	161.70480	328.11395	427.05438	201.60306	354.50476	420.75342	328.22925	371.35275	338.68262	308.73901	
1665	8.320	1173.72168	299.21521	168.84955	1380.88074	236.96227	183.37758	1334.77661	203.50172	151.71202	1221.83240	225.01743	213.03276	1251.52148	302.39978	236.35245	286.52731	370.15973	388.83444	341.44128	374.44647	180.92856	313.28152	427.80261	222.08145	347.25314	422.68326	347.29218	363.45477	339.44904	325.32452	
1666	8.325	1189.83862	300.29919	161.43001	1396.85254	242.11890	185.31085	1352.97314	208.38983	149.27766	1236.66650	226.38905	205.73158	1263.81030	303.66278	232.45592	283.27225	370.79279	411.50211	325.76279	375.13516	200.94647	299.80249	428.43323	243.65224	340.48364	422.23242	368.08932	355.02209	341.79663	344.93231	
1667	8.330	1202.89246	300.99384	155.18300	1409.88843	247.78804	187.44821	1369.03162	214.47278	147.51331	1249.13367	227.04120	199.13429	1273.61133	304.77405	229.16248	282.54346	371.70859	435.25400	311.14993	375.59259	221.98494	287.95352	429.02774	266.31186	335.96484	422.22754	386.62491	349.78345	342.38675	363.71844	
1668	8.335	1212.81006	301.18637	149.95958	1419.47681	253.96921	188.50589	1381.62048	219.99855	146.28700	1259.21399	227.86427	193.81934	1280.52344	306.86438	226.64998	283.84641	372.03973	458.88177	299.38907	376.99185	244.03252	278.84097	430.03897	289.69861	333.93179	423.09494	406.73666	346.63177	343.49728	382.67810	
1669	8.340	1219.56189	301.21979	145.17264	1426.56958	259.83350	189.47475	1390.69690	225.16623	144.89284	1266.69250	229.66585	189.68042	1285.29565	306.58179	223.34840	287.85275	371.70007	481.88925	289.42349	378.12518	266.74222	271.21887	431.10690	313.84262	334.06973	422.88913	426.41531	345.70972	344.43027	401.69946	
1670	8.345	1223.44702	300.99744	140.84323	1430.21875	264.55048	188.99203	1396.13806	229.58463	143.00163	1270.71619	230.62868	186.19008	1287.45740	308.49518	220.80109	294.14328	371.90179	504.51212	282.00089	382.44003	288.63647	266.55780	432.39716	338.30942	337.06189	423.34595	446.66721	346.52075	344.63931	420.55286	
1671	8.350	1224.25391	301.80978	136.85526	1430.99084	267.92877	187.28583	1398.17651	232.84485	140.28024	1271.60950	231.42839	182.64023	1287.34631	309.32849	217.38977	302.36304	371.49933	526.38800	276.93823	380.98511	312.79495	264.14380	435.78088	362.59683	340.41754	424.30466	466.87506	349.04666	345.34695	439.06183	
1672	8.355	1222.10999	302.56494	132.59550	1428.46338	269.72104	183.45636	1396.45081	235.05589	136.05214	1269.35645	232.08568	178.45802	1284.52539	309.59274	213.18147	311.84378	370.76819	547.02411	274.41193	382.40784	335.51337	264.39932	434.75058	386.54697	346.19046	424.12848	485.82016	353.24121	345.19055	456.94626	
1673	8.360	1217.25867	303.77985	128.38646	1423.43506	269.00607	178.19638	1391.42566	236.13351	130.58446	1264.11938	232.90205	173.55510	1279.80566	310.25409	208.95822	322.58035	369.78751	566.68811	274.20374	384.32977	357.21201	266.86734	435.60263	409.47131	353.05621	424.25507	504.52377	359.32852	345.47977	474.09360	
1674	8.365	1209.67529	305.34262	123.85541	1415.64954	268.20831	171.11826	1383.23853	236.12613	123.76613	1256.10669	233.58279	168.09877	1273.14917	309.94000	203.80043	334.30975	368.44089	584.94202	276.10690	386.20160	378.24911	271.65292	436.32321	432.35760	361.58902	423.94049	522.12079	366.51675	345.79578	490.28583	
1675	8.370	1199.73438	307.65704	119.02560	1406.12183	267.17685	163.10391	1371.97241	235.38625	115.95814	1245.71582	234.48683	162.36688	1264.51941	310.89828	198.01823	347.10971	366.94742	601.92365	280.61578	388.76413	397.88507	277.81760	437.41937	453.19141	371.57657	423.42487	538.72626	375.38956	345.45737	505.43448	
1676	8.375	1187.42322	310.05212	114.01530	1394.25195	265.50711	153.72298	1358.13025	233.80479	107.52287	1232.81360	235.70201	156.47336	1253.87830	312.01416	191.50163	360.68491	364.84250	617.35303	286.70407	391.40695	416.30023	286.29532	437.79926	472.53326	381.84430	423.53278	552.86273	385.22919	345.20389	519.60272	
1677	8.380	1173.07422	311.81201	108.80122	1379.80310	262.87744	142.92230	1341.67920	232.05873	98.37654	1217.96106	236.94885	150.57024	1241.44568	313.28635	184.61565	375.06281	362.52960	631.51965	294.54230	393.17978	433.06952	295.76874	438.54355	490.85135	394.77383	422.50327	568.22906	396.46512	344.93317	532.34100	
1678	8.385	1156.69373	314.17807	103.42887	1363.41162	260.64880	131.82231	1323.29321	230.20294	89.14039	1201.42725	238.09581	144.50476	1227.29578	314.60876	177.33018	390.45709	360.64102	644.23834	303.83276	395.13000	448.62976	306.58145	439.23029	507.53500	407.68301	421.43713	581.57013	408.76447	345.52209	544.01556	
1679	8.390	1138.67285	315.18692	97.88519	1345.60876	258.63959	120.23404	1303.20874	228.97626	79.55605	1183.66003	239.09381	138.39088	1211.39600	315.74567	169.66718	406.43015	358.87555	655.66107	314.60623	396.89252	462.94763	319.49512	438.82486	524.57227	421.61249	420.90671	593.94965	422.09085	344.99338	554.32391	
1680	8.395	1118.99402	317.43695	92.34005	1326.07922	257.43634	108.24775	1281.81702	227.88312	69.68363	1164.72070	240.20427	132.33987	1194.22253	317.10751	162.21620	422.99396	356.93536	665.60767	326.44556	398.31335	475.52203	331.96863	440.42136	536.39038	436.71259	420.50430	604.11926	436.09018	345.16510	563.27313	
1681	8.400	1098.44458	318.31308	87.17124	1305.58472	256.91678	96.05753	1259.70691	226.83774	59.66193	1145.04846	240.97226	126.14349	1175.88867	318.36642	154.49023	440.02536	355.57501	674.06305	339.13062	399.30493	486.53275	346.24167	440.66232	547.96429	450.66278	418.76492	611.60260	450.90930	344.87152	571.07587	
1682	8.405	1076.94348	318.14804	81.72205	1284.51282	257.39059	83.80253	1237.20789	227.44617	49.63607	1124.99280	241.27843	119.99725	1156.56787	319.94577	146.52832	457.32257	354.69247	681.11804	353.32233	399.59955	496.51254	361.33255	441.09137	557.86688	468.57477	419.58899	621.10266	466.27277	345.43582	577.91144	
1683	8.410	1055.06165	317.52231	76.29536	1263.36255	258.85135	71.56732	1214.64819	227.17612	40.61490	1105.31335	241.67744	113.74592	1136.71606	320.78510	138.59808	475.06067	354.10184	687.08661	367.66296	401.68100	503.91223	377.19879	441.79980	566.13208	485.33560	419.60550	626.51556	482.42578	345.37387	583.37067	
1684	8.415	1031.95044	317.42728	72.18659	1243.08850	264.51675	62.07124	1191.66797	227.06589	41.71089	1085.62024	242.25883	106.82381	1116.21826	322.82300	131.52899	492.42462	353.53680	691.11578	383.29837	402.79297	510.12711	393.79395	442.46799	572.40186	502.48758	419.91873	630.52185	498.85831	345.83612	587.74628	
1685	8.420	1007.46143	316.44565	66.62138	1219.91992	272.56558	57.28067	1169.54724	231.69366	44.09328	1066.58411	245.90398	100.53050	1092.59790	326.88034	124.81445	510.11588	354.19751	694.55603	399.49216	403.16943	514.50049	410.02435	443.00021	576.46509	519.56226	420.40222	633.44702	515.76294	345.96472	590.63495	
1686	8.425	978.54083	322.17117	59.52832	1193.25061	276.50677	55.39622	1143.52881	234.07082	44.39632	1045.78284	253.19063	98.28872	1063.26563	337.12607	119.81876	527.74426	354.79123	696.66345	416.37408	404.01486	517.09613	427.78973	443.64014	578.86658	536.92926	420.97128	634.22278	532.93933	346.90704	592.54895	
1687	8.430	952.58069	329.76224	54.42186	1167.56287	277.93539	54.43438	1117.28650	235.51875	44.38529	1018.67853	259.50040	97.93233	1035.63855	341.94766	113.93968	544.78925	356.12610	697.54645	433.39255	403.35306	518.05481	445.42398	444.40836	579.50092	554.14160	421.74506	634.48260	550.37250	346.43158	593.43262	
1688	8.435	928.75580	334.85953	53.28714	1143.00476	279.70871	54.07047	1092.50732	237.90750	45.04322	989.95905	264.08167	98.20435	1013.42371	347.51050	110.05533	561.58588	357.07526	697.37396	451.05032	403.01083	516.88019	463.00781	445.11169	578.51910	571.28107	422.67285	633.28021	567.80652	347.94104	592.90961	
1689	8.440	904.71008	340.04813	51.57853	1117.71692	280.61447	53.62139	1066.57813	239.36172	44.96653	965.14899	267.57660	98.63725	993.35211	354.00201	108.69933	577.46271	358.81036	696.06506	469.31586	404.34262	513.93921	480.39108	445.49435	575.60376	587.93811	423.78979	631.25500	585.17535	348.12115	591.59674	
1690	8.445	880.44855	344.04697	51.78183	1092.17847	281.78357	53.56578	1040.80518	241.06926	45.09504	942.88971	270.80408	99.21838	971.23615	358.90366	108.32557	592.36407	360.33502	693.70258	487.10452	404.71286	509.15240	497.48322	445.89743	570.89404	604.20764	424.63379	629.09912	602.53064	348.23514	589.21100	
1691	8.450	854.22089	342.77747	54.56597	1066.70044	282.50433	53.36324	1014.82013	242.66246	45.23238	920.10187	274.62708	100.04887	947.08881	361.00415	108.38872	606.55902	361.62878	690.91101	505.68005	404.16589	503.12668	514.21869	446.21765	564.53595	619.62482	425.38907	624.87360	619.36353	349.63242	585.47540	
1692	8.455	828.65259	343.81647	55.45293	1040.63708	283.65262	52.98447	988.98328	242.97289	45.20996	894.85461	278.19144	101.39097	921.68738	361.78403	109.41181	618.97296	363.11722	686.29803	524.10120	403.52698	495.21362	530.33722	446.53238	556.26379	634.32947	427.01056	619.13879	635.94806	350.54230	581.25922	
1693	8.460	803.29639	341.93124	56.80752	1014.66534	283.12119	52.94419	962.91895	242.80177	45.00217	869.16931	277.25552	103.55708	897.00342	360.72354	111.09953	630.15350	364.83197	680.44904	542.40582	405.98444	485.50992	546.29010	447.09961	546.81134	648.20245	428.11316	613.31458	651.82184	351.52356	575.67139	
1694	8.465	776.58276	340.24435	57.71531	988.49438	282.02063	52.71492	936.85107	241.42032	44.84418	843.62457	276.90668	105.07981	871.29932	359.27994	111.67736	640.26337	366.47681	673.37427	560.94751	405.95047	474.76395	561.83728	447.39569	536.24622	661.37469	429.18405	606.63971	667.15887	353.07916	569.36737	
1695	8.470	750.31049	338.05396	59.29235	962.08142	281.11450	52.33091	910.70313	240.18658	44.73092	818.11023	275.34341	105.71403	845.09509	357.65018	112.38412	649.13245	367.53000	664.93616	579.51941	406.02029	462.74283	577.10864	448.05582	523.75928	673.58374	430.49881	599.04755	681.75171	354.11655	561.89105	
1696	8.475	724.05530	336.32208	61.31044	935.70593	280.46210	52.13640	884.22687	239.41483	44.50711	792.67719	272.46487	105.93410	819.80011	355.97070	113.18102	657.28040	368.76761	654.82605	598.42914	405.78763	449.58252	592.36157	448.45801	510.14676	685.29932	431.80267	590.21631	695.64691	355.20627	553.34576	
1697	8.480	697.67859	334.91571	63.92225	909.24829	280.32440	51.86383	857.99536	239.13591	44.28354	767.42249	269.31491	106.28519	793.52930	355.02612	114.40400	664.20776	370.23322	643.86365	617.58569	407.62592	435.27893	608.10809	449.18427	495.13968	697.02368	433.73978	579.20630	708.88806	355.87097	544.41595	
